<?xml version="1.0" encoding="UTF-8"?>
<svg xmlns="http://www.w3.org/2000/svg" viewBox="196 24 362 40">
  <defs>
    <style>
      .cls-1 { fill: #045dcc; }
      .cls-2 { fill: #fff; }
    </style>
  </defs>
  <!-- H -->
  <polygon class="cls-1" points="466.57 60.16 460.19 60.16 460.19 46.38 442.35 46.39 442.35 60.16 436.22 60.16 436.22 27.55 442.35 27.55 442.36 40.62 460.19 40.62 460.19 27.55 466.57 27.55 466.57 60.16"/>
  <!-- U -->
  <path class="cls-1" d="M504.45,27.55h6.16l.05,23.39c0,4.82-3.64,9.18-8.77,9.2l-13.1.02c-4.29.01-8.53-3.86-8.55-8.2l-.12-24.4h5.97l.06,23.32c0,1.42,2.25,3.86,3.56,3.85l12.01-.13c1.18-.01,2.94-2.65,2.93-3.74l-.2-23.29Z"/>
  <!-- B -->
  <path class="cls-1" d="M524.28,34.56l5.79.08v5.93h15.49c2.52-.04,3.07-7.45,0-7.49l-21.28-.28v-5.74l22.69.26c3.1.04,5.78,4.06,6.13,6.34.4,2.6-.77,6.73-1.72,9.06,1.76,2.82,3.42,6.02,3.23,9.63-.14,2.68-3.06,7.77-6.64,7.8h-23.62l-.07-25.6ZM546.97,54.95c2.94-.1,2.35-8.76-.47-8.81h-16.42v8.81s16.9,0,16.9,0Z"/>
  <!-- O (first) -->
  <path class="cls-2" d="M222.61,60.16l-12.87.05c-4.25.02-9.2-3.3-9.21-7.96l-.04-15.87c-.01-4.99,4.65-9.29,9.51-9.25l13.71.1c4.3.03,8.33,4.32,8.32,8.48v15.16c-.02,4.88-4.2,9.26-9.43,9.28ZM222.51,54.63c1.4,0,3.52-2.46,3.52-3.72v-14.34c0-1.48-2.41-3.88-3.79-3.88h-10.49c-3.27-.01-5.43,2.44-5.42,5.5l.04,11.74c0,2.1,2.16,4.67,4.33,4.67l11.82.02Z"/>
  <!-- P -->
  <path class="cls-2" d="M245.71,60.16v-24.66h5.82v7.14c5.76-.06,11.27-.08,16.57-.72,2.84-.34,2.58-8.84-.2-8.91l-22.2-.54v-5.35l21.1-.03c6.21,0,9.38,4.83,9.22,10.78-.15,5.44-2.99,10.41-9.05,10.41h-15.3s-.07,11.88-.07,11.88h-5.9Z"/>
  <!-- E -->
  <polygon class="cls-2" points="295.26 46.25 295.27 54.52 317.83 54.55 317.88 60.13 289.06 60.16 289.05 34.28 295.26 34.28 295.26 40.57 316.28 40.56 316.27 46.25 295.26 46.25"/>
  <polygon class="cls-2" points="317.83 26.89 317.83 32.82 288.99 33.05 289.01 27.12 317.83 26.89"/>
  <!-- R -->
  <path class="cls-2" d="M337.71,60.16h-5.73l.02-25.87h5.72l-.02,8.35h16.72c3.27-.1,3.36-9.13.23-9.38-7.6-.61-14.23-.39-22.66-.25v-5.46s12.9,0,19.79,0,10.33,2,10.43,9.68c.06,4.77-.97,8.36-5.85,10.86l6.74,12.07h-6.83l-6.61-11.91-11.95.04v11.87Z"/>
  <!-- O (second) -->
  <path class="cls-2" d="M398.46,60.13l-12.59.07c-5.95.03-10.11-4.59-10.02-10.35l.22-12.9c.1-6.21,5-9.97,10.77-9.92l11.06.1c4.91.04,9.52,3.81,9.59,9.04l.18,15.48c-1.1,4.28-3.83,8.45-9.21,8.48ZM401.67,49.63l-.1-11.83c-.01-1.82-1.37-4.85-3.46-4.78l-13.11-.03c-2.86,0-3.17,3.4-3.17,4.81l.04,12.13c0,2.56,2.48,4.73,4.85,4.72l11.32-.06c3.26,0,3.63-3.47,3.62-4.96Z"/>
</svg>
