<?xml version="1.0" encoding="UTF-8"?>
<svg id="Livello_2" data-name="Livello 2" xmlns="http://www.w3.org/2000/svg" viewBox="0 0 554.62 119.47">
  <defs>
    <style>
      .cls-1 {
        fill: #045dcc;
      }

      .cls-2 {
        fill: #010b15;
      }
    </style>
  </defs>
  <g id="Livello_3" data-name="Livello 3">
    <g>
      <g>
        <g>
          <g>
            <path class="cls-1" d="M524.28,34.56l5.79.08v5.93h15.49c2.52-.04,3.07-7.45,0-7.49l-21.28-.28v-5.74l22.69.26c3.1.04,5.78,4.06,6.13,6.34.4,2.6-.77,6.73-1.72,9.06,1.76,2.82,3.42,6.02,3.23,9.63-.14,2.68-3.06,7.77-6.64,7.8h-23.62l-.07-25.6ZM546.97,54.95c2.94-.1,2.35-8.76-.47-8.81h-16.42v8.81s16.9,0,16.9,0Z"/>
            <polygon class="cls-1" points="466.57 60.16 460.19 60.16 460.19 46.38 442.35 46.39 442.35 60.16 436.22 60.16 436.22 27.55 442.35 27.55 442.36 40.62 460.19 40.62 460.19 27.55 466.57 27.55 466.57 60.16"/>
            <path class="cls-1" d="M504.45,27.55h6.16l.05,23.39c0,4.82-3.64,9.18-8.77,9.2l-13.1.02c-4.29.01-8.53-3.86-8.55-8.2l-.12-24.4h5.97l.06,23.32c0,1.42,2.25,3.86,3.56,3.85l12.01-.13c1.18-.01,2.94-2.65,2.93-3.74l-.2-23.29Z"/>
          </g>
          <g>
            <path class="cls-2" d="M337.71,60.16h-5.73l.02-25.87h5.72l-.02,8.35h16.72c3.27-.1,3.36-9.13.23-9.38-7.6-.61-14.23-.39-22.66-.25v-5.46s12.9,0,19.79,0,10.33,2,10.43,9.68c.06,4.77-.97,8.36-5.85,10.86l6.74,12.07h-6.83l-6.61-11.91-11.95.04v11.87Z"/>
            <path class="cls-2" d="M222.61,60.16l-12.87.05c-4.25.02-9.2-3.3-9.21-7.96l-.04-15.87c-.01-4.99,4.65-9.29,9.51-9.25l13.71.1c4.3.03,8.33,4.32,8.32,8.48v15.16c-.02,4.88-4.2,9.26-9.43,9.28ZM222.51,54.63c1.4,0,3.52-2.46,3.52-3.72v-14.34c0-1.48-2.41-3.88-3.79-3.88h-10.49c-3.27-.01-5.43,2.44-5.42,5.5l.04,11.74c0,2.1,2.16,4.67,4.33,4.67l11.82.02Z"/>
            <path class="cls-2" d="M398.46,60.13l-12.59.07c-5.95.03-10.11-4.59-10.02-10.35l.22-12.9c.1-6.21,5-9.97,10.77-9.92l11.06.1c4.91.04,9.52,3.81,9.59,9.04l.18,15.48c-1.1,4.28-3.83,8.45-9.21,8.48ZM401.67,49.63l-.1-11.83c-.01-1.82-1.37-4.85-3.46-4.78l-13.11-.03c-2.86,0-3.17,3.4-3.17,4.81l.04,12.13c0,2.56,2.48,4.73,4.85,4.72l11.32-.06c3.26,0,3.63-3.47,3.62-4.96Z"/>
            <path class="cls-2" d="M245.71,60.16v-24.66h5.82v7.14c5.76-.06,11.27-.08,16.57-.72,2.84-.34,2.58-8.84-.2-8.91l-22.2-.54v-5.35l21.1-.03c6.21,0,9.38,4.83,9.22,10.78-.15,5.44-2.99,10.41-9.05,10.41h-15.3s-.07,11.88-.07,11.88h-5.9Z"/>
            <polygon class="cls-2" points="295.26 46.25 295.27 54.52 317.83 54.55 317.88 60.13 289.06 60.16 289.05 34.28 295.26 34.28 295.26 40.57 316.28 40.56 316.27 46.25 295.26 46.25"/>
            <polygon class="cls-2" points="317.83 26.89 317.83 32.82 288.99 33.05 289.01 27.12 317.83 26.89"/>
          </g>
        </g>
        <g>
          <path class="cls-2" d="M214.62,92.33v-11.36h1.49s0,11.36,0,11.36h-1.49ZM215.36,78.04c-.58,0-.94-.37-.94-.97s.39-.97.97-.97c.7,0,.94.5.94.97,0,.59-.38.97-.97.97Z"/>
          <path class="cls-2" d="M231.46,92.33v-6.96c0-2.16-1.03-3.4-2.81-3.4-1.27,0-2.4.55-3.29,1.6l-.07.08v8.68h-1.47v-8.87c0-.71-.04-1.92-.08-2.49h1.37c0,.1.03.43.06.79l.08.94.43-.43c1.02-1.02,2.22-1.54,3.56-1.54s3.72.58,3.72,4.46v7.16h-1.49Z"/>
          <path class="cls-2" d="M248.28,92.33v-6.96c0-2.16-1.03-3.4-2.81-3.4-1.27,0-2.4.55-3.29,1.6l-.07.08v8.68h-1.47v-8.87c0-.71-.04-1.92-.08-2.49h1.37c0,.1.03.43.06.79l.08.94.43-.43c1.02-1.02,2.22-1.54,3.56-1.54s3.72.58,3.72,4.46v7.16h-1.49Z"/>
          <path class="cls-2" d="M261.97,92.58c-3.71,0-5.36-2.98-5.36-5.93,0-3.49,2.21-5.93,5.36-5.93s5.31,2.37,5.31,5.9-2.14,5.95-5.31,5.95ZM261.87,81.92c-2.22,0-3.77,1.92-3.77,4.68s1.57,4.78,3.92,4.78c1.86,0,3.75-1.45,3.75-4.7,0-2.19-1.02-4.75-3.89-4.75Z"/>
          <path class="cls-2" d="M276.8,92.33c-.45-1.37-3.24-9.24-4-11.37h1.59c1.97,5.92,2.93,8.81,3.2,9.83l.06.21h.43l.11-.2c.26-.91,1.05-3.2,2.78-8.22l.56-1.62h1.4c-.57,1.53-2.04,5.57-3.09,8.46l-1.06,2.91h-1.96Z"/>
          <path class="cls-2" d="M292.32,92.58c-2.68,0-4.28-1.33-4.28-3.57s1.94-3.47,5.19-3.47c.94,0,1.43.03,1.67.05l.31.03v-.9c0-.46-.15-2.74-3.06-2.74-1.1,0-2.13.22-3.01.64v-1.25c.9-.4,2.1-.65,3.33-.65,2.64,0,4.16,1.58,4.16,4.33v5.47c0,.38,0,.72.04,1.08-1.47.68-2.78.97-4.34.97ZM293.3,86.54c-3.32,0-3.82,1.55-3.82,2.47,0,.58.23,2.47,3.21,2.47.86,0,1.63-.14,2.34-.44l.18-.07v-4.29l-.24-.03c-.32-.05-.87-.1-1.66-.1Z"/>
          <path class="cls-2" d="M307.01,92.58c-1.79,0-2.59-.9-2.59-2.93v-7.48h-1.84v-1.2s1.83,0,1.83,0v-.28c.03-.89.13-2.58.22-3.1l1.41-.19c-.07.85-.13,2.15-.13,3.28v.28h2.75v1.2h-2.75v7.18c0,1.36.6,2.05,1.78,2.05.36,0,.69-.04,1.02-.14v1.01c-.47.2-1.04.31-1.7.31Z"/>
          <path class="cls-2" d="M315.2,92.33v-11.36h1.49s0,11.36,0,11.36h-1.49ZM315.95,78.04c-.58,0-.94-.37-.94-.97s.39-.97.97-.97c.7,0,.94.5.94.97,0,.59-.38.97-.97.97Z"/>
          <path class="cls-2" d="M327.14,92.33c-.45-1.37-3.24-9.24-4-11.37h1.59c1.97,5.92,2.93,8.81,3.2,9.83l.06.21h.43l.11-.2c.26-.9,1.05-3.18,2.76-8.17l.57-1.66h1.4c-.57,1.53-2.04,5.57-3.09,8.46l-1.06,2.91h-1.96Z"/>
          <path class="cls-2" d="M344.28,92.58c-5.09,0-5.49-4.46-5.49-5.83,0-3.55,2.11-6.03,5.14-6.03,3.56,0,4.5,3.04,4.5,4.65,0,.54-.04.94-.08,1.16-.4.05-1.26.08-2.44.08h-5.63v.28c-.02,1.34.39,2.47,1.18,3.27.77.78,1.88,1.19,3.2,1.19,1.08,0,2.03-.18,2.91-.56v1.11c-.88.45-1.97.67-3.3.67ZM343.86,81.85c-2.27,0-3.32,1.8-3.55,3.49l-.04.32h4.89c1.47,0,1.58-.04,1.66-.06l.13-.04.04-.13c.04-.11.04-.24.04-.36,0-1.24-.86-3.21-3.18-3.21Z"/>
          <polygon class="cls-2" points="364.78 92.33 364.78 76.67 373.53 76.67 373.69 77.97 366.25 77.97 366.25 83.67 373.02 83.67 373.02 84.97 366.25 84.97 366.25 91.03 374.15 91.03 373.93 92.33 364.78 92.33"/>
          <path class="cls-2" d="M390.35,92.33c-.69-.97-2.31-3.47-3.53-5.34l-.53-.81c-.22-.33-.42-.52-.8-.52h-3.08v6.68h-1.45v-15.64c1.41-.05,2.62-.07,4.14-.07,3.64,0,5.73,1.61,5.73,4.41s-2.23,3.75-3.2,4.08l-.36.12.23.31c.77,1.06,3.71,5.38,4.6,6.79h-1.75ZM385.02,77.87c-.94,0-1.85.02-2.35.05h-.27v6.51h2.91c2.45,0,4.04-1.3,4.04-3.3s-1.58-3.25-4.33-3.25Z"/>
          <path class="cls-2" d="M398.49,92.33v-15.64c.84-.03,2.35-.07,3.89-.07,4.41,0,5.98,2.54,5.98,4.92,0,3.83-3.21,5.19-6.22,5.19-.6,0-.95,0-1.25-.02-.22,0-.92,0-.92,0v5.62h-1.47ZM402.41,77.87c-1.28,0-1.99.04-2.18.05l-.27.02v7.48l.27.02c.42.02.84.02,1.88.02,3.04,0,4.78-1.41,4.78-3.87,0-2.29-1.72-3.72-4.48-3.72Z"/>
          <path class="cls-2" d="M426.72,92.58c-1.23,0-2.44-.26-3.15-.67v-1.32c.91.54,2.05.84,3.2.84,1.93,0,2.62-.97,2.62-1.88,0-1.2-.89-1.78-2.41-2.38-2.41-.92-3.31-1.84-3.31-3.42,0-1.46,1.22-3.03,3.89-3.03,1.36,0,2.31.26,2.73.5l-.02,1.26c-.71-.39-1.78-.64-2.76-.64-1.8,0-2.44.93-2.44,1.81,0,.95.62,1.52,2.46,2.25,2.41.93,3.31,1.86,3.31,3.44,0,1.99-1.58,3.23-4.11,3.23Z"/>
          <path class="cls-2" d="M442.19,92.58c-3.71,0-5.36-2.98-5.36-5.93,0-3.49,2.21-5.93,5.36-5.93s5.31,2.37,5.31,5.9-2.14,5.95-5.31,5.95ZM442.09,81.92c-2.22,0-3.77,1.92-3.77,4.68s1.57,4.78,3.92,4.78c1.86,0,3.75-1.45,3.75-4.7,0-2.19-1.02-4.75-3.89-4.75Z"/>
          <path class="cls-2" d="M456.38,92.58c-1.03,0-2.07-.29-2.07-2.44v-14.84h1.47s0,14.67,0,14.67c0,1,.4,1.46,1.27,1.46.12,0,.21,0,.31-.03v1.05c-.14.05-.44.13-.97.13Z"/>
          <path class="cls-2" d="M467.45,92.58c-1.72,0-3.77-.75-3.77-4.33v-7.28h1.47s0,7.03,0,7.03c0,2.11,1.05,3.33,2.89,3.33,1.22,0,2.25-.45,3.06-1.34l.07-.08v-8.93h1.47s0,9.04,0,9.04c0,1.16.06,1.79.13,2.32h-1.36c-.05-.2-.09-.54-.12-.92l-.04-.63-.44.45c-1.08,1.11-2.42,1.34-3.36,1.34Z"/>
          <path class="cls-2" d="M483.47,92.58c-1.79,0-2.59-.9-2.59-2.93v-7.48h-1.84v-1.2s1.83,0,1.83,0v-.28c.03-.89.13-2.58.22-3.1l1.41-.19c-.07.85-.13,2.15-.13,3.28v.28h2.75v1.2h-2.75v7.18c0,1.36.6,2.05,1.78,2.05.36,0,.69-.04,1.02-.14v1.01c-.47.2-1.04.31-1.7.31Z"/>
          <path class="cls-2" d="M491.66,92.33v-11.36h1.49s0,11.36,0,11.36h-1.49ZM492.4,78.04c-.58,0-.94-.37-.94-.97s.39-.97.97-.97c.7,0,.94.5.94.97,0,.59-.38.97-.97.97Z"/>
          <path class="cls-2" d="M505.37,92.58c-3.71,0-5.36-2.98-5.36-5.93,0-3.49,2.21-5.93,5.36-5.93s5.31,2.37,5.31,5.9-2.14,5.95-5.31,5.95ZM505.27,81.92c-2.22,0-3.77,1.92-3.77,4.68s1.57,4.78,3.92,4.78c1.86,0,3.75-1.45,3.75-4.7,0-2.19-1.02-4.75-3.89-4.75Z"/>
          <path class="cls-2" d="M525.13,92.33v-6.96c0-2.16-1.03-3.4-2.81-3.4-1.27,0-2.4.55-3.29,1.6l-.07.08v8.68h-1.47v-8.87c0-.71-.04-1.92-.08-2.49h1.37c0,.1.03.43.06.79l.08.94.43-.43c1.02-1.02,2.22-1.54,3.56-1.54s3.72.58,3.72,4.46v7.16h-1.49Z"/>
          <path class="cls-2" d="M536.58,92.58c-1.23,0-2.44-.26-3.15-.67v-1.32c.91.54,2.05.84,3.2.84,1.93,0,2.62-.97,2.62-1.88,0-1.2-.89-1.78-2.41-2.38-2.41-.92-3.31-1.84-3.31-3.42,0-1.46,1.22-3.03,3.89-3.03,1.36,0,2.31.26,2.73.5l-.02,1.26c-.71-.39-1.78-.64-2.76-.64-1.8,0-2.44.93-2.44,1.81,0,.95.62,1.52,2.46,2.25,2.41.93,3.31,1.86,3.31,3.44,0,1.99-1.58,3.23-4.11,3.23Z"/>
        </g>
      </g>
      <g>
        <rect class="cls-1" x="141.87" width="19.81" height="18.98"/>
        <path class="cls-2" d="M142.02,26.23l19.66.03v92.68s-19.69,0-19.69,0l-.04-46.32-26.69.14c-5.15,22.66-22.03,40.45-44.7,45.37s-44.96-3.98-58.62-22.28C-8.37,68.65-2.18,29.77,25.98,10.41,41.61-.34,60.87-3.16,80.17,4.4c14.27,5.59,27.88,18.79,32.79,36.2l-18.77-.02c-9.66-19.92-32.74-27.97-52.85-18.5-15.06,7.09-24.28,22.52-23.77,38.97.5,16.14,10.23,31.17,25.58,37.49,12.34,5.08,25.45,4.01,36.58-3.32,13.39-8.82,20.09-24.16,18.64-40.61l43.64-.09v-28.29Z"/>
      </g>
    </g>
  </g>
</svg>